<svg xmlns="http://www.w3.org/2000/svg" width="1360" height="760" viewBox="0 0 1360 760" role="img" aria-label="Guess Band Online revised UI preview">
  <defs>
    <linearGradient id="bg" x1="0" y1="0" x2="1" y2="1">
      <stop offset="0%" stop-color="#121722"/>
      <stop offset="100%" stop-color="#1B2331"/>
    </linearGradient>
  </defs>
  <rect width="1360" height="760" fill="url(#bg)"/>

  <rect x="56" y="52" width="1248" height="654" rx="18" fill="#1E2A3A" stroke="#2F3D52"/>
  <text x="84" y="98" fill="#DCE8FF" font-size="28" font-family="Arial, sans-serif">猜乐队联机 - 历史猜测（改版预览）</text>
  <text x="84" y="130" fill="#8EA1C0" font-size="16" font-family="Arial, sans-serif">更大圆角 · 图标箭头 · 青绿色命中态 · 浅灰线条表头</text>

  <rect x="84" y="162" width="1192" height="506" rx="14" fill="#152030" stroke="#31445E"/>

  <!-- header -->
  <g font-family="Arial, sans-serif" font-size="14" fill="#4F5D73" font-weight="700">
    <rect x="102" y="184" width="190" height="44" rx="12" fill="#F4F7FC" stroke="#C9D2E3"/>
    <text x="170" y="212">PLAYER</text>
    <rect x="302" y="184" width="250" height="44" rx="12" fill="#F4F7FC" stroke="#C9D2E3"/>
    <text x="402" y="212">BAND</text>
    <rect x="562" y="184" width="130" height="44" rx="12" fill="#F4F7FC" stroke="#C9D2E3"/>
    <text x="600" y="212">REGION</text>
    <rect x="702" y="184" width="180" height="44" rx="12" fill="#F4F7FC" stroke="#C9D2E3"/>
    <text x="767" y="212">GENRE</text>
    <rect x="892" y="184" width="120" height="44" rx="12" fill="#F4F7FC" stroke="#C9D2E3"/>
    <text x="934" y="212">YEAR</text>
    <rect x="1022" y="184" width="110" height="44" rx="12" fill="#F4F7FC" stroke="#C9D2E3"/>
    <text x="1060" y="212">MEM</text>
    <rect x="1142" y="184" width="116" height="44" rx="12" fill="#F4F7FC" stroke="#C9D2E3"/>
    <text x="1174" y="212">STATUS</text>
  </g>

  <!-- row 1 -->
  <g font-family="Arial, sans-serif" font-size="14" fill="#ECF3FF">
    <rect x="102" y="238" width="190" height="52" rx="12" fill="#122742"/>
    <circle cx="126" cy="264" r="14" fill="#6A8DFF"/>
    <text x="148" y="269">Nebula</text>
    <rect x="302" y="238" width="250" height="52" rx="12" fill="#122742"/>
    <text x="324" y="269">R2 · Coldplay</text>
    <rect x="562" y="238" width="130" height="52" rx="12" fill="#122742"/>
    <text x="610" y="269">UK</text>
    <rect x="702" y="238" width="180" height="52" rx="12" fill="#2A8F87"/>
    <text x="757" y="269">Pop Rock</text>
    <rect x="892" y="238" width="120" height="52" rx="12" fill="#2A8F87"/>
    <text x="930" y="269">2000</text>
    <rect x="1022" y="238" width="110" height="52" rx="12" fill="#2A8F87"/>
    <text x="1062" y="269">4</text>
    <rect x="1142" y="238" width="116" height="52" rx="12" fill="#2A8F87"/>
    <text x="1174" y="269">Active</text>
  </g>

  <!-- row 2 -->
  <g font-family="Arial, sans-serif" font-size="14" fill="#ECF3FF">
    <rect x="102" y="298" width="190" height="52" rx="12" fill="#122742"/>
    <circle cx="126" cy="324" r="14" fill="#8A6AFF"/>
    <text x="148" y="329">Aurora</text>
    <rect x="302" y="298" width="250" height="52" rx="12" fill="#122742"/>
    <text x="324" y="329">R2 · Muse</text>
    <rect x="562" y="298" width="130" height="52" rx="12" fill="#122742"/>
    <text x="610" y="329">UK</text>
    <rect x="702" y="298" width="180" height="52" rx="12" fill="#3D79BF"/>
    <text x="742" y="329">Alternative Rock</text>
    <rect x="892" y="298" width="120" height="52" rx="12" fill="#3D79BF"/>
    <text x="923" y="329">1999</text>
    <circle cx="968" cy="324" r="9" fill="rgba(255,255,255,0.2)"/>
    <path d="M965 327 L968 321 L971 327Z" fill="#ECF3FF"/>
    <rect x="1022" y="298" width="110" height="52" rx="12" fill="#122742"/>
    <text x="1054" y="329">3</text>
    <circle cx="1088" cy="324" r="9" fill="rgba(255,255,255,0.2)"/>
    <path d="M1085 321 L1088 327 L1091 321Z" fill="#ECF3FF"/>
    <rect x="1142" y="298" width="116" height="52" rx="12" fill="#2A8F87"/>
    <text x="1174" y="329">Active</text>
  </g>

  <!-- row 3 -->
  <g font-family="Arial, sans-serif" font-size="14" fill="#ECF3FF">
    <rect x="102" y="358" width="190" height="52" rx="12" fill="#122742"/>
    <circle cx="126" cy="384" r="14" fill="#6A8DFF"/>
    <text x="148" y="389">Nebula</text>
    <rect x="302" y="358" width="250" height="52" rx="12" fill="#122742"/>
    <text x="324" y="389">R1 · Oasis</text>
    <rect x="562" y="358" width="130" height="52" rx="12" fill="#122742"/>
    <text x="610" y="389">UK</text>
    <rect x="702" y="358" width="180" height="52" rx="12" fill="#7A5A35"/>
    <text x="760" y="389">Britpop</text>
    <rect x="892" y="358" width="120" height="52" rx="12" fill="#122742"/>
    <text x="923" y="389">1994</text>
    <circle cx="968" cy="384" r="9" fill="rgba(255,255,255,0.2)"/>
    <path d="M965 387 L968 381 L971 387Z" fill="#ECF3FF"/>
    <rect x="1022" y="358" width="110" height="52" rx="12" fill="#2A8F87"/>
    <text x="1060" y="389">5</text>
    <rect x="1142" y="358" width="116" height="52" rx="12" fill="#122742"/>
    <text x="1166" y="389">Disbanded</text>
  </g>
</svg>
