<svg xmlns="http://www.w3.org/2000/svg" width="1360" height="760" viewBox="0 0 1360 760" role="img" aria-label="Guess Band Online revised UI preview v2">
  <defs>
    <linearGradient id="bg2" x1="0" y1="0" x2="1" y2="1">
      <stop offset="0%" stop-color="#171C26"/>
      <stop offset="100%" stop-color="#202938"/>
    </linearGradient>
  </defs>
  <rect width="1360" height="760" fill="url(#bg2)"/>

  <rect x="56" y="52" width="1248" height="654" rx="22" fill="#1F2938" stroke="#36465E"/>
  <text x="84" y="98" fill="#D5E2F8" font-size="28" font-family="Arial, sans-serif">猜乐队联机 - 历史猜测（预览 V2）</text>
  <text x="84" y="130" fill="#91A4C2" font-size="16" font-family="Arial, sans-serif">低对比表头 · 柔和青绿命中 · 细线条 · 小号图标箭头</text>

  <rect x="84" y="162" width="1192" height="506" rx="16" fill="#162233" stroke="#3A4F6C"/>

  <g font-family="Arial, sans-serif" font-size="13" fill="#5D6B7F" font-weight="700">
    <rect x="102" y="184" width="190" height="42" rx="14" fill="#EFF3F8" stroke="#D5DCE7"/>
    <text x="170" y="210">PLAYER</text>
    <rect x="302" y="184" width="250" height="42" rx="14" fill="#EFF3F8" stroke="#D5DCE7"/>
    <text x="402" y="210">BAND</text>
    <rect x="562" y="184" width="130" height="42" rx="14" fill="#EFF3F8" stroke="#D5DCE7"/>
    <text x="600" y="210">REGION</text>
    <rect x="702" y="184" width="180" height="42" rx="14" fill="#EFF3F8" stroke="#D5DCE7"/>
    <text x="767" y="210">GENRE</text>
    <rect x="892" y="184" width="120" height="42" rx="14" fill="#EFF3F8" stroke="#D5DCE7"/>
    <text x="934" y="210">YEAR</text>
    <rect x="1022" y="184" width="110" height="42" rx="14" fill="#EFF3F8" stroke="#D5DCE7"/>
    <text x="1060" y="210">MEM</text>
    <rect x="1142" y="184" width="116" height="42" rx="14" fill="#EFF3F8" stroke="#D5DCE7"/>
    <text x="1174" y="210">STATUS</text>
  </g>

  <g font-family="Arial, sans-serif" font-size="14" fill="#EAF2FF">
    <rect x="102" y="236" width="190" height="52" rx="14" fill="#142C48"/>
    <circle cx="126" cy="262" r="14" fill="#7097F1"/>
    <text x="148" y="267">Nebula</text>
    <rect x="302" y="236" width="250" height="52" rx="14" fill="#142C48"/>
    <text x="324" y="267">R2 · Coldplay</text>
    <rect x="562" y="236" width="130" height="52" rx="14" fill="#142C48"/>
    <text x="610" y="267">UK</text>
    <rect x="702" y="236" width="180" height="52" rx="14" fill="#2A7F77"/>
    <text x="757" y="267">Pop Rock</text>
    <rect x="892" y="236" width="120" height="52" rx="14" fill="#2A7F77"/>
    <text x="930" y="267">2000</text>
    <rect x="1022" y="236" width="110" height="52" rx="14" fill="#2A7F77"/>
    <text x="1062" y="267">4</text>
    <rect x="1142" y="236" width="116" height="52" rx="14" fill="#2A7F77"/>
    <text x="1174" y="267">Active</text>
  </g>

  <g font-family="Arial, sans-serif" font-size="14" fill="#EAF2FF">
    <rect x="102" y="296" width="190" height="52" rx="14" fill="#142C48"/>
    <circle cx="126" cy="322" r="14" fill="#8E79EA"/>
    <text x="148" y="327">Aurora</text>
    <rect x="302" y="296" width="250" height="52" rx="14" fill="#142C48"/>
    <text x="324" y="327">R2 · Muse</text>
    <rect x="562" y="296" width="130" height="52" rx="14" fill="#142C48"/>
    <text x="610" y="327">UK</text>
    <rect x="702" y="296" width="180" height="52" rx="14" fill="#386BA3"/>
    <text x="742" y="327">Alternative Rock</text>
    <rect x="892" y="296" width="120" height="52" rx="14" fill="#386BA3"/>
    <text x="923" y="327">1999</text>
    <circle cx="968" cy="322" r="8" fill="rgba(255,255,255,0.18)"/>
    <path d="M965.5 325.5 L968 320.5 L970.5 325.5Z" fill="#EAF2FF"/>
    <rect x="1022" y="296" width="110" height="52" rx="14" fill="#142C48"/>
    <text x="1054" y="327">3</text>
    <circle cx="1088" cy="322" r="8" fill="rgba(255,255,255,0.18)"/>
    <path d="M1085.5 319.5 L1088 324.5 L1090.5 319.5Z" fill="#EAF2FF"/>
    <rect x="1142" y="296" width="116" height="52" rx="14" fill="#2A7F77"/>
    <text x="1174" y="327">Active</text>
  </g>

  <g font-family="Arial, sans-serif" font-size="14" fill="#EAF2FF">
    <rect x="102" y="356" width="190" height="52" rx="14" fill="#142C48"/>
    <circle cx="126" cy="382" r="14" fill="#7097F1"/>
    <text x="148" y="387">Nebula</text>
    <rect x="302" y="356" width="250" height="52" rx="14" fill="#142C48"/>
    <text x="324" y="387">R1 · Oasis</text>
    <rect x="562" y="356" width="130" height="52" rx="14" fill="#142C48"/>
    <text x="610" y="387">UK</text>
    <rect x="702" y="356" width="180" height="52" rx="14" fill="#705537"/>
    <text x="760" y="387">Britpop</text>
    <rect x="892" y="356" width="120" height="52" rx="14" fill="#142C48"/>
    <text x="923" y="387">1994</text>
    <circle cx="968" cy="382" r="8" fill="rgba(255,255,255,0.18)"/>
    <path d="M965.5 385.5 L968 380.5 L970.5 385.5Z" fill="#EAF2FF"/>
    <rect x="1022" y="356" width="110" height="52" rx="14" fill="#2A7F77"/>
    <text x="1060" y="387">5</text>
    <rect x="1142" y="356" width="116" height="52" rx="14" fill="#142C48"/>
    <text x="1166" y="387">Disbanded</text>
  </g>
</svg>
