<svg width="24" height="24" viewBox="0 0 24 24" fill="none" xmlns="http://www.w3.org/2000/svg" role="img" aria-label="Music Review icon alt 1">
  <defs>
    <linearGradient id="bg1" x1="3" y1="3" x2="21" y2="21" gradientUnits="userSpaceOnUse">
      <stop offset="0" stop-color="#28D7FF"/>
      <stop offset="0.5" stop-color="#5F73FF"/>
      <stop offset="1" stop-color="#A84DFF"/>
    </linearGradient>
    <linearGradient id="note1" x1="11" y1="7" x2="18" y2="18" gradientUnits="userSpaceOnUse">
      <stop offset="0" stop-color="#FFE37A"/>
      <stop offset="1" stop-color="#FFB23C"/>
    </linearGradient>
  </defs>

  <rect x="3" y="3" width="18" height="18" rx="5" fill="url(#bg1)"/>
  <path d="M11.2 7.5V14.2C10.7 13.9 10.1 13.7 9.5 13.7C8 13.7 6.8 14.7 6.8 15.9C6.8 17.1 8 18.1 9.5 18.1C11 18.1 12.2 17.1 12.2 15.9V10.2L16.7 9.2V13.1C16.2 12.8 15.6 12.6 15 12.6C13.5 12.6 12.3 13.6 12.3 14.8C12.3 16 13.5 17 15 17C16.5 17 17.7 16 17.7 14.8V7.9L11.2 9.3V7.5Z" fill="url(#note1)"/>
</svg>
