<svg width="1280" height="640" viewBox="0 0 1280 640" fill="none" xmlns="http://www.w3.org/2000/svg">
  <defs>
    <linearGradient id="bg" x1="88" y1="72" x2="1196" y2="592" gradientUnits="userSpaceOnUse">
      <stop stop-color="#101828"/>
      <stop offset="0.5" stop-color="#183B4E"/>
      <stop offset="1" stop-color="#27548A"/>
    </linearGradient>
    <linearGradient id="card" x1="220" y1="164" x2="1030" y2="506" gradientUnits="userSpaceOnUse">
      <stop stop-color="#FFF7E6" stop-opacity="0.95"/>
      <stop offset="1" stop-color="#F8FAFC" stop-opacity="0.9"/>
    </linearGradient>
    <linearGradient id="accent" x1="0" y1="0" x2="1" y2="1">
      <stop stop-color="#F59E0B"/>
      <stop offset="1" stop-color="#EF4444"/>
    </linearGradient>
    <filter id="shadow" x="164" y="130" width="952" height="412" filterUnits="userSpaceOnUse" color-interpolation-filters="sRGB">
      <feFlood flood-opacity="0" result="BackgroundImageFix"/>
      <feColorMatrix in="SourceAlpha" type="matrix" values="0 0 0 0 0 0 0 0 0 0 0 0 0 0 0 0 0 0 127 0" result="hardAlpha"/>
      <feOffset dy="18"/>
      <feGaussianBlur stdDeviation="24"/>
      <feComposite in2="hardAlpha" operator="out"/>
      <feColorMatrix type="matrix" values="0 0 0 0 0.0313726 0 0 0 0 0.101961 0 0 0 0 0.211765 0 0 0 0.28 0"/>
      <feBlend mode="normal" in2="BackgroundImageFix" result="effect1_dropShadow_1_1"/>
      <feBlend mode="normal" in="SourceGraphic" in2="effect1_dropShadow_1_1" result="shape"/>
    </filter>
  </defs>

  <rect width="1280" height="640" rx="32" fill="url(#bg)"/>
  <circle cx="1110" cy="120" r="118" fill="#F59E0B" fill-opacity="0.12"/>
  <circle cx="196" cy="530" r="154" fill="#38BDF8" fill-opacity="0.12"/>
  <circle cx="968" cy="552" r="92" fill="#F97316" fill-opacity="0.1"/>

  <g filter="url(#shadow)">
    <rect x="212" y="154" width="856" height="328" rx="28" fill="url(#card)"/>
  </g>

  <rect x="252" y="200" width="112" height="112" rx="28" fill="#0F172A"/>
  <circle cx="308" cy="256" r="26" fill="url(#accent)"/>
  <path d="M301 230L325 240L315 266L291 257L301 230Z" fill="#FDE68A"/>
  <rect x="294" y="284" width="28" height="7" rx="3.5" fill="#CBD5E1"/>

  <text x="400" y="228" fill="#0F172A" font-family="Arial, Helvetica, sans-serif" font-size="22" font-weight="700">
    Music Review Site
  </text>
  <text x="400" y="274" fill="#0F172A" font-family="Arial, Helvetica, sans-serif" font-size="54" font-weight="800">
    乐评网站 · 猜乐队
  </text>
  <text x="400" y="320" fill="#334155" font-family="Arial, Helvetica, sans-serif" font-size="24" font-weight="500">
    中文优先的开源音乐站点，包含 Guess-Band 玩法、公开题库与演示数据
  </text>
  <text x="400" y="356" fill="#475569" font-family="Arial, Helvetica, sans-serif" font-size="22" font-weight="500">
    Open-source music project with Guess-Band gameplay, demo seeds, and Spring Boot + React stack
  </text>

  <rect x="400" y="394" width="160" height="42" rx="21" fill="#0F172A"/>
  <text x="430" y="421" fill="#F8FAFC" font-family="Arial, Helvetica, sans-serif" font-size="20" font-weight="700">
    React + Vite
  </text>

  <rect x="574" y="394" width="186" height="42" rx="21" fill="#1D4ED8"/>
  <text x="607" y="421" fill="#EFF6FF" font-family="Arial, Helvetica, sans-serif" font-size="20" font-weight="700">
    Spring Boot
  </text>

  <rect x="776" y="394" width="130" height="42" rx="21" fill="#EA580C"/>
  <text x="814" y="421" fill="#FFF7ED" font-family="Arial, Helvetica, sans-serif" font-size="20" font-weight="700">
    MySQL
  </text>

  <rect x="938" y="190" width="88" height="88" rx="20" fill="#FFF7ED"/>
  <text x="963" y="245" fill="#9A3412" font-family="Arial, Helvetica, sans-serif" font-size="36" font-weight="800">
    70s
  </text>
  <text x="957" y="266" fill="#C2410C" font-family="Arial, Helvetica, sans-serif" font-size="16" font-weight="700">
    CLASSIC
  </text>

  <rect x="956" y="298" width="70" height="122" rx="18" fill="#082F49"/>
  <rect x="972" y="320" width="38" height="8" rx="4" fill="#7DD3FC"/>
  <rect x="972" y="340" width="38" height="8" rx="4" fill="#38BDF8"/>
  <rect x="972" y="360" width="38" height="8" rx="4" fill="#0EA5E9"/>
  <rect x="972" y="380" width="28" height="8" rx="4" fill="#0284C7"/>

  <text x="214" y="582" fill="#E2E8F0" font-family="Arial, Helvetica, sans-serif" font-size="20" font-weight="600">
    Browse music · Build question banks · Play online · Open demo seeds
  </text>
</svg>
