<svg xmlns="http://www.w3.org/2000/svg" width="1400" height="860" viewBox="0 0 1400 860" role="img" aria-label="年份卡片蓝色系预览">
  <defs>
    <linearGradient id="bg" x1="0" y1="0" x2="0" y2="1">
      <stop offset="0%" stop-color="#EFF6FF"/>
      <stop offset="100%" stop-color="#EAF2FF"/>
    </linearGradient>
    <linearGradient id="card" x1="0" y1="0" x2="1" y2="1">
      <stop offset="0%" stop-color="#F1F7FF"/>
      <stop offset="100%" stop-color="#DDEBFF"/>
    </linearGradient>
    <linearGradient id="cover" x1="0" y1="0" x2="1" y2="1">
      <stop offset="0%" stop-color="#D1E4FF"/>
      <stop offset="100%" stop-color="#ABC8F5"/>
    </linearGradient>
  </defs>

  <rect width="1400" height="860" fill="url(#bg)"/>
  <text x="120" y="110" font-size="56" fill="#1F3D77" font-family="'Playfair Display','Noto Serif SC',serif" font-weight="700">🗓 浏览年份</text>

  <g transform="translate(120,170)">
    <g>
      <rect width="250" height="300" rx="14" fill="url(#card)" stroke="#9FBCE6" stroke-width="2"/>
      <text x="20" y="42" font-size="30" fill="#224A86" font-family="'Noto Sans SC',sans-serif" font-weight="700">2024</text>
      <rect x="20" y="58" width="210" height="158" rx="10" fill="url(#cover)"/>
      <rect x="20" y="230" width="104" height="30" rx="15" fill="#4E8DE6"/>
      <text x="36" y="250" font-size="16" fill="#F5FAFF" font-family="'Noto Sans SC',sans-serif">18 张专辑</text>
      <rect x="132" y="230" width="98" height="30" rx="15" fill="#2F6FC8"/>
      <text x="144" y="250" font-size="16" fill="#F5FAFF" font-family="'Noto Sans SC',sans-serif">3 支乐队</text>
    </g>

    <g transform="translate(280,0)">
      <rect width="250" height="300" rx="14" fill="url(#card)" stroke="#9FBCE6" stroke-width="2"/>
      <text x="20" y="42" font-size="30" fill="#224A86" font-family="'Noto Sans SC',sans-serif" font-weight="700">2017</text>
      <rect x="20" y="58" width="210" height="158" rx="10" fill="url(#cover)"/>
      <rect x="20" y="230" width="104" height="30" rx="15" fill="#4E8DE6"/>
      <text x="36" y="250" font-size="16" fill="#F5FAFF" font-family="'Noto Sans SC',sans-serif">12 张专辑</text>
      <rect x="132" y="230" width="98" height="30" rx="15" fill="#2F6FC8"/>
      <text x="144" y="250" font-size="16" fill="#F5FAFF" font-family="'Noto Sans SC',sans-serif">1 支乐队</text>
    </g>

    <g transform="translate(560,0)">
      <rect width="250" height="300" rx="14" fill="url(#card)" stroke="#9FBCE6" stroke-width="2"/>
      <text x="20" y="42" font-size="30" fill="#224A86" font-family="'Noto Sans SC',sans-serif" font-weight="700">2001</text>
      <rect x="20" y="58" width="210" height="158" rx="10" fill="url(#cover)"/>
      <rect x="20" y="230" width="104" height="30" rx="15" fill="#4E8DE6"/>
      <text x="36" y="250" font-size="16" fill="#F5FAFF" font-family="'Noto Sans SC',sans-serif">9 张专辑</text>
      <rect x="132" y="230" width="98" height="30" rx="15" fill="#2F6FC8"/>
      <text x="144" y="250" font-size="16" fill="#F5FAFF" font-family="'Noto Sans SC',sans-serif">2 支乐队</text>
    </g>

    <g transform="translate(840,0)">
      <rect width="250" height="300" rx="14" fill="url(#card)" stroke="#9FBCE6" stroke-width="2"/>
      <text x="20" y="42" font-size="30" fill="#224A86" font-family="'Noto Sans SC',sans-serif" font-weight="700">1985</text>
      <rect x="20" y="58" width="210" height="158" rx="10" fill="url(#cover)"/>
      <rect x="20" y="230" width="104" height="30" rx="15" fill="#4E8DE6"/>
      <text x="36" y="250" font-size="16" fill="#F5FAFF" font-family="'Noto Sans SC',sans-serif">7 张专辑</text>
      <rect x="132" y="230" width="98" height="30" rx="15" fill="#2F6FC8"/>
      <text x="144" y="250" font-size="16" fill="#F5FAFF" font-family="'Noto Sans SC',sans-serif">2 支乐队</text>
    </g>
  </g>
</svg>
